<svg width="28" height="28" viewBox="0 0 28 28" fill="none" xmlns="http://www.w3.org/2000/svg">
<circle cx="14" cy="14" r="14" fill="#DFE2EB"/>
<path d="M13.9525 5C11.0954 5 8.75977 7.33559 8.75977 10.1928C8.75977 13.0499 11.0954 15.3855 13.9525 15.3855C16.8097 15.3855 19.1453 13.0499 19.1453 10.1928C19.1453 7.33559 16.8097 5 13.9525 5Z" fill="#727888"/>
<path d="M22.8642 19.5351C22.7281 19.195 22.5467 18.8776 22.3426 18.5828C21.2995 17.0408 19.6896 16.0204 17.8755 15.771C17.6488 15.7483 17.3994 15.7936 17.2179 15.9297C16.2655 16.6326 15.1318 16.9954 13.9526 16.9954C12.7734 16.9954 11.6397 16.6326 10.6873 15.9297C10.5059 15.7936 10.2564 15.7256 10.0297 15.771C8.21564 16.0204 6.583 17.0408 5.5626 18.5828C5.35852 18.8776 5.1771 19.2177 5.04107 19.5351C4.97306 19.6712 4.99572 19.8299 5.06373 19.966C5.24515 20.2835 5.47189 20.6009 5.67597 20.873C5.99341 21.3039 6.33356 21.6894 6.71907 22.0522C7.03651 22.3696 7.39932 22.6644 7.76216 22.9592C9.55353 24.2971 11.7077 25 13.93 25C16.1522 25 18.3064 24.297 20.0978 22.9592C20.4606 22.6871 20.8234 22.3696 21.1409 22.0522C21.5037 21.6894 21.8665 21.3039 22.184 20.873C22.4107 20.5782 22.6148 20.2835 22.7962 19.966C22.9095 19.8299 22.9322 19.6712 22.8642 19.5351Z" fill="#727888"/>
</svg>
