<svg width="29" height="28" viewBox="0 0 29 28" fill="none" xmlns="http://www.w3.org/2000/svg">
<g id="skill-icons:linkedin" clip-path="url(#clip0_4966_2082)">
<g id="Group">
<path id="Vector" d="M21.5703 0H6.69531C3.07094 0 0.132812 2.93813 0.132812 6.5625V21.4375C0.132812 25.0619 3.07094 28 6.69531 28H21.5703C25.1947 28 28.1328 25.0619 28.1328 21.4375V6.5625C28.1328 2.93813 25.1947 0 21.5703 0Z" fill="white"/>
<path id="Vector_2" d="M21.5703 0H6.69531C3.07094 0 0.132812 2.93813 0.132812 6.5625V21.4375C0.132812 25.0619 3.07094 28 6.69531 28H21.5703C25.1947 28 28.1328 25.0619 28.1328 21.4375V6.5625C28.1328 2.93813 25.1947 0 21.5703 0Z" fill="#0A66C2"/>
<path id="Vector_3" d="M20.336 23.8093H23.5374C23.6534 23.8093 23.7647 23.7632 23.8467 23.6812C23.9288 23.5992 23.9749 23.4879 23.9749 23.3719L23.9766 16.6079C23.9766 13.0726 23.2148 10.3552 19.0833 10.3552C17.5128 10.2968 16.0318 11.1064 15.2326 12.4583C15.2287 12.4648 15.2227 12.4699 15.2156 12.4728C15.2086 12.4757 15.2007 12.4761 15.1934 12.4741C15.186 12.4721 15.1795 12.4678 15.1748 12.4617C15.1701 12.4557 15.1676 12.4483 15.1675 12.4406V11.1191C15.1675 11.003 15.1214 10.8918 15.0394 10.8097C14.9573 10.7277 14.846 10.6816 14.73 10.6816H11.6919C11.5759 10.6816 11.4646 10.7277 11.3825 10.8097C11.3005 10.8918 11.2544 11.003 11.2544 11.1191V23.3713C11.2544 23.4873 11.3005 23.5986 11.3825 23.6806C11.4646 23.7627 11.5759 23.8088 11.6919 23.8088H14.8931C15.0091 23.8088 15.1204 23.7627 15.2024 23.6806C15.2845 23.5986 15.3306 23.4873 15.3306 23.3713V17.3148C15.3306 15.6023 15.6554 13.9439 17.7785 13.9439C19.8714 13.9439 19.8985 15.9035 19.8985 17.4257V23.3718C19.8985 23.4878 19.9446 23.5991 20.0267 23.6812C20.1087 23.7632 20.22 23.8093 20.336 23.8093ZM4.28906 6.5217C4.28906 7.81944 5.35733 8.88716 6.65506 8.88716C7.95247 8.88705 9.02008 7.81867 9.02008 6.52127C9.01986 5.22386 7.95214 4.15625 6.65462 4.15625C5.35678 4.15625 4.28906 5.22408 4.28906 6.5217ZM5.0502 23.8093H8.25566C8.37169 23.8093 8.48297 23.7632 8.56502 23.6812C8.64706 23.5991 8.69316 23.4878 8.69316 23.3718V11.1191C8.69316 11.003 8.64706 10.8918 8.56502 10.8097C8.48297 10.7277 8.37169 10.6816 8.25566 10.6816H5.0502C4.93417 10.6816 4.82289 10.7277 4.74084 10.8097C4.6588 10.8918 4.6127 11.003 4.6127 11.1191V23.3718C4.6127 23.4878 4.6588 23.5991 4.74084 23.6812C4.82289 23.7632 4.93417 23.8093 5.0502 23.8093Z" fill="white"/>
</g>
</g>
<defs>
<clipPath id="clip0_4966_2082">
<rect width="28" height="28" fill="white" transform="translate(0.132812)"/>
</clipPath>
</defs>
</svg>
